<?xml version="1.0" encoding="UTF-8"?>
<!DOCTYPE svg PUBLIC "-//W3C//DTD SVG 1.1//EN" "http://www.w3.org/Graphics/SVG/1.1/DTD/svg11.dtd">
<svg xmlns="http://www.w3.org/2000/svg" xml:space="preserve" width="100mm" height="72mm" version="1.1" style="shape-rendering:geometricPrecision; text-rendering:geometricPrecision; image-rendering:optimizeQuality; fill-rule:evenodd; clip-rule:evenodd" viewBox="0 0 10000 7200" xmlns:xlink="http://www.w3.org/1999/xlink">
 <defs>
  <style type="text/css">
   <![CDATA[
    .licht {fill:#444}
    .bit {fill:#016aa9;fill-rule:nonzero}
   ]]>
  </style>
 </defs>
 <g>
  <path class="licht" d="M3068 1263c0,-229 1,-475 1,-705 0,-107 0,-215 0,-323 0,-52 17,-98 52,-137 39,-42 88,-64 146,-65 91,0 182,0 273,0 105,1 193,87 196,192 0,2 0,39 0,102 -1,316 -4,1300 -1,1820 4,502 195,925 562,1267 196,182 425,308 682,383 80,24 162,41 245,52 80,11 160,16 241,16 188,0 377,0 565,1 71,0 129,30 170,89 23,33 34,71 34,112 0,88 1,176 0,264 -1,99 -67,178 -165,197 -14,3 -29,4 -44,4 -149,0 -587,1 -657,-2 -56,-2 -112,-7 -167,-12 -103,-10 -204,-29 -304,-53 -300,-72 -575,-197 -825,-377 -447,-323 -750,-749 -909,-1278 -33,-110 -56,-223 -72,-337 -16,-112 -23,-224 -23,-337 0,-291 0,-582 0,-873zm139 4850c-221,0 0,0 -221,0 -196,0 -362,132 -403,324 -51,235 107,452 329,491 26,4 52,6 78,6 217,0 0,0 217,0l0 198c-235,0 -3,0 -238,0 -283,-5 -527,-210 -582,-488 -65,-327 139,-641 464,-715 43,-10 87,-14 132,-15 224,0 0,0 224,0l0 199zm762 -709c0,216 -1,435 -1,654 9,-6 12,-9 16,-12 81,-67 174,-110 278,-124 190,-27 357,25 496,157 95,91 151,203 170,333 4,26 6,52 6,79 0,209 0,436 0,646l-198 0c0,-207 1,-436 0,-643 -1,-105 -38,-196 -113,-269 -108,-104 -238,-138 -382,-95 -144,44 -232,144 -264,292 -6,23 -7,48 -7,72 -1,206 -1,437 -1,643l-200 0 0 -1733 200 0zm-3969 0c0,445 0,914 0,1359 0,8 0,16 0,24 0,35 7,69 17,102 43,135 173,249 346,248 228,0 475,0 703,0l0 -198 -702 0c-40,0 -76,-12 -107,-37 -39,-33 -59,-76 -59,-128 0,-153 0,-305 0,-458 0,-296 0,-615 0,-912l-198 0zm6228 1733c-119,0 -259,-1 -378,0 -165,1 -322,-117 -354,-298 -4,-24 -5,-49 -5,-73 -1,-194 0,-388 0,-582 0,-253 0,-506 0,-759 0,-7 0,-13 0,-21 66,0 131,0 198,0 0,169 0,335 0,504 180,0 359,0 538,0 0,67 0,132 0,199 -179,0 -358,0 -538,0 0,214 0,449 0,663 -1,96 64,150 120,163 15,4 31,6 47,6 116,0 256,0 372,0l0 198zm-4403 -1479l-197 0 0 -254 197 0 0 254zm0 1478l-197 0 0 -1263 197 0 0 1263z"/>
  <path class="bit" d="M4869 499c0,110 -90,200 -200,200l-267 0c-110,0 -200,-90 -200,-200l0 -266c0,-111 90,-200 200,-200l267 0c110,0 200,89 200,200l0 266zm1920 5990l0 102c0,318 258,576 577,576 318,0 576,-258 576,-576l0 -102c0,-318 -258,-576 -576,-576 -145,0 -278,54 -379,142l0 -651 -198 0 0 1085zm959 85l0 0c0,211 -171,382 -382,382 -212,0 -383,-171 -383,-382l0 -68c0,-211 171,-382 383,-382 211,0 382,171 382,382l0 68zm2252 566c-120,0 -259,-1 -379,0 -165,1 -322,-117 -354,-298 -4,-24 -5,-49 -5,-73 0,-194 0,-388 0,-582 0,-253 0,-506 0,-759 0,-7 0,-14 0,-22 67,0 131,0 198,0 0,168 0,336 0,505 181,0 359,0 539,0 0,67 0,132 0,199 -180,0 -359,0 -539,0 0,214 1,449 0,663 0,96 64,150 121,163 15,4 31,5 46,6 117,0 257,0 373,0l0 198zm-1299 -1479l-197 0 0 -254 197 0 0 254zm0 1477l-197 0 0 -1262 197 0 0 1262zm-2657 -3738c106,0 192,-86 192,-192l0 -284c0,-106 86,-192 192,-192l284 1c106,0 192,-86 192,-192l0 -492c0,-746 -605,-1350 -1351,-1350l-491 0c-106,0 -192,86 -192,192l1 284c0,106 -86,192 -192,192l-285 -1c-106,0 -192,86 -192,192l0 491c0,747 605,1351 1351,1351l491 0zm-505 -717l0 0c-369,0 -668,-299 -668,-668 0,-369 299,-668 668,-668 369,0 668,299 668,668 0,369 -299,668 -668,668z"/>
 </g>
</svg>
